<?xml version="1.0" encoding="utf-8"?>
<!-- Generator: Adobe Illustrator 25.4.1, SVG Export Plug-In . SVG Version: 6.00 Build 0)  -->
<svg version="1.1" id="Ebene_1" xmlns="http://www.w3.org/2000/svg" xmlns:xlink="http://www.w3.org/1999/xlink" x="0px" y="0px"
	 viewBox="0 0 1000 1000" style="enable-background:new 0 0 1000 1000;" xml:space="preserve">
<style type="text/css">
	.st0{fill:#BFBFBF;}
	.st1{fill:none;stroke:#AAAAAA;stroke-width:3;stroke-miterlimit:10;}
	.st2{fill:none;stroke:#AAAAAA;stroke-width:3;stroke-miterlimit:10;stroke-dasharray:35,20;}
</style>
<g>
	<g transform="translate(0.000000,511.000000) scale(0.100000,-0.100000)">
		<path class="st0" d="M2246.1,3760c-5.4-12.5-7.2-1665.8-5.4-3672.4l5.4-3649.1h2752.5h2752.5l5.4,1601.3
			c1.8,878.6,0,1599.5-5.4,1599.5c-7.2,0-1355.6-945-1436.3-1006c-10.8-9-191.9,220.6-491.3,629.4
			c-405.2,552.3-477,641.9-500.3,622.2c-16.1-12.6-252.9-209.8-527.2-437.5c-274.4-229.5-503.9-417.8-512.8-417.8
			c-7.2,0-209.8,182.9-450.1,405.2l-439.3,407.1l-274.5-10.7l-274.4-12.6L3088.8,23l243.9,206.2l478.8-306.6
			c263.6-168.6,491.3-310.2,505.7-313.8c16.1-3.6,270.8,168.6,591.7,405.3c310.2,225.9,570.2,407,577.4,403.4
			c7.2-5.4,213.4-270.8,455.5-591.7c243.9-319.2,450.1-579.2,460.8-575.6c9,1.8,317.4,249.3,686.8,548.7L7760,344v952.2v950.4
			L6994.3,3014l-767.4,767.5H4240.1C2667.4,3781.5,2251.4,3776.1,2246.1,3760z M5916.6,2711l5.4-767.5l767.5-5.4l765.7-3.6v-722.6
			V491L6962.1,87.6c-270.8-222.4-500.3-403.5-509.3-403.5S6262.7-90,6052.9,186.2c-209.8,276.1-410.6,539.7-446.5,586.4l-64.6,84.3
			l-611.4-446.5L4319-37.9l-505.7,322.8l-505.7,322.8l-91.5-77.1c-50.2-43.1-220.6-184.7-378.4-317.4L2550.9-25.4l-5.4,1728.6
			c-1.8,950.4,0,1739.4,5.4,1751.9c5.4,16.1,360.4,21.5,1685.6,21.5h1676.6L5916.6,2711z M6777.4,2800.6
			c294.1-294.1,534.4-539.7,534.4-548.7c0-7.2-243.9-10.8-541.6-9l-543.3,5.4l-5.4,543.3c-1.8,297.7,1.8,541.5,9,541.5
			S6485.1,3092.9,6777.4,2800.6z M3772-927.3c444.7-414.2,496.7-455.5,523.6-432.2c30.5,25.1,771.1,633,919.9,753.1L5298-540
			l460.8-627.6l460.8-627.6l84.3,57.4c46.6,32.3,313.8,218.8,595.3,414.2c281.5,197.3,521.8,362.2,534.4,365.8
			c17.9,7.2,21.5-224.1,17.9-1144l-5.4-1154.8H4998.6H2550.9l-5.4,1377.1c-3.6,1093.8,0,1375.4,17.9,1377.1
			c48.4,5.4,512.8,28.7,611.5,30.5l104,3.6L3772-927.3z"/>
	</g>
	<g>
		<g>
			<polyline class="st1" points="5,22.5 5,5 22.5,5 			"/>
			<line class="st2" x1="42.5" y1="5" x2="967.5" y2="5"/>
			<polyline class="st1" points="977.5,5 995,5 995,22.5 			"/>
			<line class="st2" x1="995" y1="42.5" x2="995" y2="967.5"/>
			<polyline class="st1" points="995,977.5 995,995 977.5,995 			"/>
			<line class="st2" x1="957.5" y1="995" x2="32.5" y2="995"/>
			<polyline class="st1" points="22.5,995 5,995 5,977.5 			"/>
			<line class="st2" x1="5" y1="957.5" x2="5" y2="32.5"/>
		</g>
	</g>
</g>
</svg>
